<svg xmlns="http://www.w3.org/2000/svg" version="1.1" xmlns:xlink="http://www.w3.org/1999/xlink" xmlns:svgjs="http://svgjs.dev/svgjs" width="1000" height="1125" viewBox="0 0 1000 1125"><g transform="matrix(1,0,0,1,0,0)"><svg viewBox="0 0 320 360" data-background-color="#ffffff" preserveAspectRatio="xMidYMid meet" height="1125" width="1000" xmlns="http://www.w3.org/2000/svg" xmlns:xlink="http://www.w3.org/1999/xlink"><g id="tight-bounds" transform="matrix(1,0,0,1,0,0)"><svg viewBox="0 0 320 360" height="360" width="320"><g><svg></svg></g><g><svg viewBox="0 0 320 360" height="360" width="320"><g><path xmlns="http://www.w3.org/2000/svg" d="M297.491 100.645c-12.426-21.51-112.674-79.355-137.491-79.355-24.817 0-125.028 57.845-137.491 79.355-11.591 20.02-11.591 138.726 0 158.746 12.463 21.474 112.674 79.319 137.491 79.319 24.817 0 125.064-57.845 137.491-79.355 11.591-20.02 11.591-138.69 0-158.71zM309.481 93.705c-14.461-24.998-119.469-86.295-149.481-86.295-30.012 0-135.02 61.297-149.481 86.295-14.025 24.199-14.025 148.391 0 172.59 14.461 24.998 119.469 86.295 149.481 86.295 30.012 0 135.02-61.297 149.481-86.259 14.025-24.235 14.025-148.427 0-172.626zM300.906 261.353c-12.753 22.055-115.472 81.317-140.906 81.318-25.434 0-128.153-59.298-140.906-81.354-11.881-20.529-11.881-142.178 0-162.707 12.753-22.019 115.472-81.281 140.906-81.281 25.434 0 128.153 59.298 140.906 81.318 11.881 20.529 11.881 142.178 0 162.706z" fill="#3d3839" fill-rule="nonzero" stroke="none" stroke-width="1" stroke-linecap="butt" stroke-linejoin="miter" stroke-miterlimit="10" stroke-dasharray="" stroke-dashoffset="0" font-family="none" font-weight="none" font-size="none" text-anchor="none" style="mix-blend-mode: normal" data-fill-palette-color="tertiary"></path></g><g transform="matrix(1,0,0,1,48,140.3522420099148)"><svg viewBox="0 0 224 79.29551598017045" height="79.29551598017045" width="224"><g><svg viewBox="0 0 395.48263999999995 139.99999999999997" height="79.29551598017045" width="224"><g><svg viewBox="0 0 223.99999999999997 139.99999999999997" height="139.99999999999997" width="223.99999999999997"><g id="textblocktransform"><svg viewBox="0 0 223.99999999999997 139.99999999999997" height="139.99999999999997" width="223.99999999999997" id="textblock"><g><svg viewBox="0 0 223.99999999999997 139.99999999999997" height="139.99999999999997" width="223.99999999999997"><g transform="matrix(1,0,0,1,0,0)"><svg width="223.99999999999997" viewBox="4.199999809265137 -34.5 55.20000076293945 34.5" height="139.99999999999997" data-palette-color="#ffffff"><path d="M23-34.5L28.45-34.5 18.6-20.3Q18.15-19.6 17.68-19.07 17.2-18.55 16.6-18L16.6-18 16.6-17.9Q17.25-17.3 17.85-16.68 18.45-16.05 18.85-15.4L18.85-15.4 29.15 0 23.5 0 11.55-18.05 23-34.5ZM4.2-34.5L9.15-34.5 9.15-23.9Q9.15-22.35 8.97-20.95 8.8-19.55 8.45-18.05L8.45-18.05Q8.75-16.65 8.95-15.2 9.15-13.75 9.15-12.45L9.15-12.45 9.15 0 4.2 0 4.2-34.5ZM7.45-19.9L14.05-19.9 14.05-16.05 7.45-16.05 7.45-19.9ZM34.15-34.5L39.15-34.5 39.15 0 34.15 0 34.15-34.5ZM38.75-20.5L54.9-20.5 54.9-16.35 38.75-16.35 38.75-20.5ZM54.35-34.5L59.4-34.5 59.4 0 54.35 0 54.35-34.5Z" opacity="1" transform="matrix(1,0,0,1,0,0)" fill="#ffffff" class="wordmark-text-0" data-fill-palette-color="quaternary" id="text-0"></path></svg></g></svg></g></svg></g></svg></g><g transform="matrix(1,0,0,1,257.05064,0.7839999999999918)"><svg viewBox="0 0 138.432 138.432" height="138.432" width="138.432"><g data-palette-color="#ffffff"><rect width="37.83808" height="138.432" fill="#ffffff" stroke="transparent" data-fill-palette-color="quaternary" x="0" fill-opacity="1"></rect><rect width="37.83808" height="138.432" fill="#ffffff" stroke="transparent" data-fill-palette-color="quaternary" x="46.144" fill-opacity="0.75"></rect><rect width="37.83808" height="138.432" fill="#ffffff" stroke="transparent" data-fill-palette-color="quaternary" x="92.288" fill-opacity="0.5"></rect></g></svg></g></svg></g></svg></g></svg></g><defs></defs></svg><rect width="320" height="360" fill="none" stroke="none" visibility="hidden"></rect></g></svg></g></svg>